<?xml version="1.0" encoding="UTF-8" standalone="no"?>
<svg width="354px" height="395px" viewBox="0 0 354 395" version="1.1" xmlns="http://www.w3.org/2000/svg" xmlns:xlink="http://www.w3.org/1999/xlink">
    <!-- Generator: Sketch 3.6.1 (26313) - http://www.bohemiancoding.com/sketch -->
    <title>Untitled 4</title>
    <desc>Created with Sketch.</desc>
    <defs></defs>
    <g id="Page-1" stroke="none" stroke-width="1" fill="none" fill-rule="evenodd">
        <g id="Group-4" transform="translate(2.000000, 2.000000)">
            <g id="Group">
                <path d="M274.177083,58.7159334 C266.82537,19.647477 229.264534,-6.06199354 190.269337,1.29957743 C151.274139,8.6611484 125.625801,46.3021129 132.972652,85.3705692 C135.165524,97.0341039 140.105564,107.465026 146.92243,116.219985 C147.642042,115.922794 148.390828,115.659707 149.168787,115.430723 C152.509149,113.477057 156.539949,112.268804 161.368158,112.268804 C161.548061,112.268804 161.703652,112.30778 161.873831,112.317524 C164.129912,111.187223 166.68259,110.39309 169.551314,110.052051 C171.846294,109.340741 174.369798,108.92175 177.165589,108.92175 C178.818752,108.92175 180.364945,109.082525 181.843068,109.340741 C183.340639,109.077653 184.911144,108.92175 186.588618,108.92175 C187.74097,108.92175 188.839837,109.009446 189.909531,109.131245 C190.81877,109.038678 191.698836,108.92175 192.666423,108.92175 C196.643739,108.92175 200.115381,109.715884 203.091074,111.084912 C209.295298,111.172608 214.254787,113.174994 217.959817,116.341785 C222.783163,117.121303 226.677821,119.172409 229.682687,122.012777 C236.421758,122.967686 241.434731,126.358588 244.697297,130.962615 C267.10738,115.245588 279.569312,87.4070594 274.177083,58.7159334 L274.177083,58.7159334 Z" id="Shape" stroke="#B39DDB" stroke-width="3"></path>
                <ellipse id="Oval" stroke="#B39DDB" stroke-width="4" cx="184.089424" cy="201.723341" rx="91.9596229" ry="92.1438727"></ellipse>
                <path d="M93.097388,187.458166 C92.3826381,184.135471 97.2448823,174.391499 97.2448823,169.519513 C97.697071,167.809446 98.275678,166.143226 99.0876728,164.579319 C89.4507049,143.381307 66.3842189,130.641064 42.5154625,135.147651 C14.440865,140.448372 -4.03080037,167.546358 1.25932123,195.682078 C6.54944282,223.817798 33.5932446,242.326473 61.6727043,237.016008 C74.4798553,234.599503 85.1184454,227.530251 92.5479544,217.976286 C91.901276,215.462342 91.6338525,212.846085 91.7067862,210.239572 C92.3826381,203.623415 92.3826381,198.751429 92.7570309,189.036689 C92.8202401,188.500771 93.0001431,187.989212 93.097388,187.458166 L93.097388,187.458166 Z" id="Shape" stroke="#B39DDB" stroke-width="3"></path>
                <path d="M295.006937,262.822918 C292.546642,249.741636 281.611455,240.52871 268.96962,239.564057 C268.459084,241.064628 267.788095,242.526224 266.942064,243.929356 C264.938819,247.266667 262.420177,250.209346 259.896672,253.147154 C263.762156,248.655183 260.0863,253.283569 259.439621,254.370022 C259.172198,254.818245 258.875601,255.256724 258.603315,255.700075 C258.22406,256.387025 257.815632,257.039871 257.368305,257.663485 C255.311576,260.956948 253.15274,264.191946 250.536852,267.061546 C248.893414,268.864181 246.948516,270.583992 244.83344,272.133284 C243.40394,274.101566 241.643808,275.835993 239.562767,277.253741 C244.03117,290.719911 257.796183,299.153318 272.091181,296.454238 C287.68926,293.511559 297.948595,278.45225 295.006937,262.822918 L295.006937,262.822918 Z" id="Shape" stroke="#CDDC39" stroke-width="3"></path>
                <ellipse id="Oval" stroke="#B39DDB" stroke-width="3" cx="316.011832" cy="132.05394" rx="34.4878975" ry="34.5569973"></ellipse>
                <ellipse id="Oval" stroke="#E91E63" stroke-width="3" cx="197.421698" cy="372.686204" rx="18.1410328" ry="18.1773801"></ellipse>
                <ellipse id="Oval" stroke="#CDDC39" stroke-width="3" cx="131.246555" cy="336.677355" rx="34.4878975" ry="34.5569973"></ellipse>
            </g>
            <path d="M168.68416,179.556427 C170.45116,181.990427 170.89716,185.224427 169.94216,188.661427 C167.92316,195.928427 171.25616,200.495427 172.42516,201.821427 C173.44516,200.520427 175.18116,199.323427 175.41316,199.167427 C174.77416,198.454427 172.27016,195.220427 173.79616,189.731427 C175.06616,185.163427 174.38216,180.596427 171.92116,177.206427 C169.44216,173.788427 165.35816,171.784427 160.42316,171.563427 L160.24316,175.559427 C163.99216,175.728427 166.91016,177.109427 168.68416,179.556427 L168.68416,179.556427 Z M209.88216,166.240427 C196.37016,164.510427 186.87216,172.279427 185.93416,184.299427 C184.95016,196.887427 189.24116,200.733427 192.80616,202.096427 C195.49116,203.121427 198.93016,203.768427 198.93016,203.768427 C198.93016,203.768427 190.71116,204.867427 185.41716,208.289427 C185.41716,208.289427 183.82016,209.553427 182.86716,208.643427 C181.95116,207.768427 182.73816,206.778427 183.16816,206.416427 C184.37516,205.401427 186.07616,204.371427 188.67416,203.341427 C187.10416,202.208427 185.64416,200.530427 184.57016,198.062427 C177.80016,200.615427 174.18416,203.669427 172.67916,206.569427 C170.60416,210.573427 170.83816,213.878427 172.66916,216.054427 C176.06816,220.098427 186.04816,220.867427 197.49716,217.971427 C198.30716,217.805427 199.09916,218.328427 199.26516,219.139427 C199.42116,219.905427 198.96416,220.659427 198.23216,220.879427 C193.87216,221.983427 189.04616,222.719427 184.55916,222.719427 C181.05616,222.719427 177.76516,222.266427 175.05416,221.192427 C175.07016,222.178427 174.99716,223.350427 174.73016,224.620427 C174.57016,225.431427 173.99416,226.081427 173.18716,226.081427 C172.38016,226.081427 171.72616,225.427427 171.72616,224.620427 C171.72616,224.403427 171.79416,224.001427 171.79416,224.001427 C172.22816,221.942427 172.02316,220.183427 171.89316,219.427427 C171.33416,218.993427 170.82216,218.519427 170.37316,217.986427 C168.56216,215.835427 166.24116,210.666427 170.99116,203.227427 C166.97016,198.061427 158.78416,198.403427 151.85416,204.599427 C151.83716,204.613427 150.47916,205.734427 149.42616,207.154427 C149.25216,207.389427 148.38616,208.064427 147.41216,207.463427 C146.34916,206.807427 146.89116,205.514427 147.16216,205.145427 C148.30816,203.587427 149.56416,202.490427 150.49116,201.835427 C146.48816,196.607427 137.89916,201.568427 139.11716,212.911427 C139.63816,217.759427 143.58116,221.995427 152.34616,219.575427 C152.34616,219.575427 152.63916,218.198427 152.74016,217.739427 C152.76616,217.622427 153.43316,214.814427 155.97616,211.044427 C155.97616,211.044427 156.91316,209.718427 158.19616,210.741427 C159.27416,211.600427 158.46416,212.721427 158.46416,212.721427 C156.25916,215.991427 155.66716,218.395427 155.66216,218.418427 C153.98516,224.963427 154.87216,233.154427 160.87816,238.807427 C174.22816,251.368427 215.51716,233.920427 219.00616,212.725427 C220.13516,205.868427 218.34116,206.311427 222.25516,199.263427 C231.60616,182.402427 223.69016,168.003427 209.88216,166.240427 L209.88216,166.240427 Z" id="Shape" fill="#EDE7F6"></path>
            <g id="Group-2" transform="translate(289.000000, 107.000000)">
                <path d="M27.1744391,0 C12.1837045,0 -3.55271368e-15,12.0922064 -3.55271368e-15,26.9703622 C-3.55271368e-15,41.8485181 12.2434286,54 27.2341631,54 C42.2248976,54 54.4683262,41.8485181 54.4683262,26.9703622 C54.4683262,12.0922064 42.1651736,0 27.1744391,0 L27.1744391,0 Z M27.1744391,50.0878156 C14.274046,50.0878156 3.88206272,39.7145993 3.88206272,26.9703622 C3.88206272,23.413831 4.71819931,20.0351262 6.15157631,17.0120746 C9.79474287,18.6717892 13.6768056,17.0120746 16.0657673,14.9967069 C23.0534802,22.2283205 37.2678021,30.1119649 49.8098509,21.6355653 C50.2279192,23.3545554 50.4668154,25.1328211 50.4668154,27.0296378 C50.4668154,39.7145993 40.0151081,50.0878156 27.1744391,50.0878156 L27.1744391,50.0878156 Z" id="Shape" fill="#EDE7F6"></path>
                <ellipse id="Oval" fill="#B39DDB" cx="19.5752688" cy="30.1695652" rx="1.24193548" ry="3.16956522"></ellipse>
                <ellipse id="Oval" fill="#B39DDB" cx="36.1344086" cy="33.1043478" rx="1.24193548" ry="3.16956522"></ellipse>
            </g>
            <g id="Group-3" transform="translate(160.000000, 25.000000)">
                <path d="M83.9496,50.3036484 C83.9496,50.3036484 74.45928,26.0087033 74.20896,25.4541538 C74.78016,24.0502418 73.72596,19.157011 73.3656,18.7536264 L73.18668,15.6960879 C73.1724,15.4488791 72.67596,15.2768352 72.07788,15.3110769 C71.54868,15.341978 71.2026,15.3110769 71.2026,15.3110769 C71.17068,15.0655385 70.44828,14.8225055 69.8544,14.8976703 C69.26052,14.9728352 68.8044,15.2334066 68.83632,15.4789451 L68.89848,16.6406593 L66.14916,9.98189011 C65.94336,9.42232967 65.32092,9.13503297 64.75812,9.33964835 C64.19532,9.54426374 63.90636,10.1631209 64.11216,10.7226813 L66.39276,17.5568352 L62.45316,12.3261978 C62.11212,11.8367912 61.43676,11.714022 60.94452,12.0522637 C60.45228,12.3905055 60.3288,13.0628132 60.669,13.5522198 L65.15376,20.3922198 C65.06388,20.6561319 65.04624,21.1772747 64.86648,21.3526593 C64.35324,21.8529231 63.80724,22.4417143 64.05336,23.3829451 C64.29948,24.3241758 65.06304,24.9413626 65.75856,24.7618022 L66.00636,24.6974945 C67.29912,26.0922198 68.34408,27.5754725 69.8166,27.9262418 L72.67764,44.0148571 L60.02892,39.8757802 C58.19016,37.219956 55.45428,35.1871648 52.1052,34.3127473 C49.26096,33.5711209 46.38648,33.7698901 43.80012,34.7127912 C43.62876,34.7570549 18.51864,48.7460659 18.51864,48.7460659 L8.47728,28.6127473 C8.715,27.9763516 8.87544,27.1503736 8.93256,26.0872088 C8.99892,26.0788571 9.06444,26.0705055 9.12912,26.0646593 C10.92252,25.9068132 12.21108,25.4625055 12.21108,23.3779341 L12.21108,7.05964835 C12.21108,4.73872527 10.56048,2.08206593 8.52432,1.1258022 C7.62888,0.706549451 6.87204,0.947076923 6.1824,1.00804396 C4.389,1.16589011 3.10128,1.6101978 3.10128,3.69476923 L3.10128,12.2760879 C1.344,12.9492308 1.38096,14.2996923 0.2814,18.7611429 C-0.88956,23.5140659 1.82868,28.2202198 4.1202,29.5631648 C4.21176,30.5069011 11.41728,57.2847912 11.8356,58.008044 C13.16028,60.2997363 15.64752,61.3503736 17.39136,60.354022 L32.5584,53.1732747 C30.88176,59.6132308 28.5558,68.5636923 26.67,75.8964396 L55.74156,75.8964396 L62.0214,52.0783736 L78.13932,55.880044 C79.02468,56.1715165 79.97724,55.9961319 80.82816,55.4783297 C83.03736,54.583033 84.27048,51.7618462 83.9496,50.3036484 L83.9496,50.3036484 Z" id="Shape" fill="#EDE7F6"></path>
                <path d="M46.70316,29.4061538 C52.74528,31.9734505 59.51064,30.3924835 63.8232,25.9619341 C63.14448,25.4850549 62.6136,24.7325714 62.3742,23.8172308 C62.034,22.5168791 62.35404,21.2532747 63.1218,20.4506813 L59.22588,14.5084835 C58.81008,13.8971429 58.65384,13.1621978 58.7874,12.4347692 C58.92264,11.6981538 59.33844,11.0575824 59.95752,10.6316484 C60.43128,10.3059341 60.98568,10.1338901 61.56024,10.1338901 C61.81728,10.1338901 62.07012,10.168967 62.31204,10.2349451 C62.32716,9.87081319 62.41452,9.50918681 62.57412,9.1676044 C62.89164,8.48861538 63.45612,7.97331868 64.1634,7.71608791 C64.47504,7.60250549 64.80096,7.54571429 65.13108,7.54571429 L65.13108,7.54571429 C65.30076,7.54571429 65.46624,7.56492308 65.6292,7.59498901 C65.64096,7.59749451 65.65272,7.60083516 65.66448,7.60334066 C65.82156,7.63340659 65.9736,7.67850549 66.12228,7.73446154 L66.12228,7.73446154 C64.5162,4.93164835 62.0256,2.59986813 58.8126,1.23520879 C50.98968,-2.08791209 41.93364,1.52334066 38.5896,9.30206593 C35.2464,17.079956 38.88024,26.0821978 46.70316,29.4061538 L46.70316,29.4061538 Z" id="Shape" fill="#D1C4E9"></path>
            </g>
            <path d="M55.6071937,157.416864 C63.611337,156.67802 65.827869,165.421007 64.8427436,175.395401 C63.8576183,185.369795 69.337378,186.909053 69.337378,186.909053 C65.5815876,190.726414 57.6390146,190.480133 57.6390146,190.480133 L57.6390146,190.480133 L57.6390146,191.403688 L50.7431373,211.475616 L43.7856897,191.342117 L43.7856897,190.603273 C34.61171,190.664844 31.9026154,186.785913 31.9026154,186.785913 C31.9026154,186.785913 37.1360937,186.724342 36.828242,172.871017 C36.5203904,159.079263 42.8621347,156.80116 45.2633777,155.877605 C52.159255,153.230081 55.6071937,157.416864 55.6071937,157.416864 L55.6071937,157.416864 Z M68.6601043,214 L75.4328409,214 C75.8638333,214 76.2332553,214 76.1716849,213.384297 C75.8022629,210.059499 75.3712706,206.67313 74.4477156,203.471473 C73.8320123,201.439652 72.9084573,199.592542 71.184488,198.237995 C68.9063856,196.514025 66.382002,195.221048 63.796048,194.051212 C62.133649,193.312368 60.47125,192.573524 58.808851,191.89625 C60.5943906,193.435509 64.2270403,196.945018 64.904314,200.639238 L61.579516,200.639238 C61.3332346,200.639238 61.1485236,200.885519 61.210094,201.1318 L62.0105083,203.964036 L50.7431373,211.537187 L50.7431373,211.598757 L50.681567,211.598757 L50.6199967,211.598757 L50.6199967,211.537187 L39.4757663,203.902465 L40.2761807,201.07023 C40.337751,200.823949 40.15304,200.577667 39.9067587,200.577667 L36.5819607,200.577667 C37.3208047,196.637166 41.3844467,192.942946 42.9852753,191.526828 C42.8621347,191.588399 42.738994,191.588399 42.6774237,191.649969 C42.554283,191.649969 42.4927127,191.711539 42.4311423,191.77311 C40.7687433,192.511954 39.044774,193.189227 37.382375,193.928071 C34.796421,195.097908 32.2720374,196.390885 29.993935,198.114854 C28.2699657,199.469401 27.2848404,201.254941 26.7307074,203.348332 C25.745582,206.67313 25.37616,210.059499 25.006738,213.384297 C24.9451677,214 25.3145897,214 25.745582,214 L32.5183187,214 L50.496856,214 L50.496856,214 L50.6199967,214 L50.7431373,214 L50.7431373,214 L68.6601043,214 L68.6601043,214 Z" id="Shape" fill="#EDE7F6"></path>
        </g>
    </g>
</svg>