<!-- <?xml version="1.0" ?>
  <svg id="Layer_1" version="1.1" viewBox="0 0 91 91" xml:space="preserve" xmlns="http://www.w3.org/2000/svg" xmlns:xlink="http://www.w3.org/1999/xlink">
    <g>
      <path fill="#512da8" d="M44.7,50.6v24.9h3.4V50.6c8.2-0.8,14.5-7.8,14.5-16.1c0-8.9-7.3-16.2-16.2-16.2s-16.2,7.3-16.2,16.2   C30.2,42.8,36.6,49.7,44.7,50.6z"/>
    </g>
  </svg> -->


<!-- <svg width="21.62px" height="38px" viewBox="0 0 6 10" version="1.1" xmlns="http://www.w3.org/2000/svg" xmlns:xlink="http://www.w3.org/1999/xlink">
    <!-- Generator: Sketch 49 (51002) - http://www.bohemiancoding.com/sketch -->
    <!-- <desc>Created with Sketch.</desc>
    <defs></defs>
    <g id="Page-1" stroke="none" stroke-width="1" fill="none" fill-rule="evenodd">
        <g id="map_marker" fill="#512DA8" fill-rule="nonzero">
            <path d="M2.53448276,5.62068966 L2.53448276,9.9137931 L3.12068966,9.9137931 L3.12068966,5.62068966 C4.53448276,5.48275862 5.62068966,4.27586207 5.62068966,2.84482759 C5.62068966,1.31034483 4.36206897,0.0517241379 2.82758621,0.0517241379 C1.29310345,0.0517241379 0.0344827586,1.31034483 0.0344827586,2.84482759 C0.0344827586,4.27586207 1.13793103,5.46551724 2.53448276,5.62068966 Z" id="Shape"></path>
        </g>
    </g>
</svg> -->


<svg width="21px" height="38px" viewBox="0 0 21 38" version="1.1" xmlns="http://www.w3.org/2000/svg" xmlns:xlink="http://www.w3.org/1999/xlink">
    <!-- Generator: Sketch 49 (51002) - http://www.bohemiancoding.com/sketch -->
    <desc>Created with Sketch.</desc>
    <defs></defs>
    <g id="Page-1" stroke="none" stroke-width="1" fill="none" fill-rule="evenodd">
        <g id="map_marker" fill="#512DA8" fill-rule="nonzero">
            <path d="M19.2835385,6.65701538 C17.8173231,2.94704615 14.7054154,0.847107692 10.2828,0.583446154 C10.2670154,0.582861538 10.2524,0.5852 10.2366154,0.5852 C10.2173231,0.5852 10.1980308,0.581692308 10.1781538,0.582861538 C5.75670769,0.845938462 2.64421538,2.94646154 1.17858462,6.65584615 C-2.3636,15.6197538 4.52141538,31.7943077 9.59470769,37.1452923 C9.60230769,37.1534769 9.61107692,37.1581538 9.61867692,37.1657538 C9.62218462,37.1692615 9.62335385,37.1751077 9.62744615,37.1780308 C9.63446154,37.1844615 9.64323077,37.1868 9.65024615,37.1920615 C9.728,37.2610462 9.81276923,37.3171692 9.90513846,37.354 C9.91332308,37.3569231 9.92150769,37.3586769 9.92969231,37.3616 C10.0267385,37.3972615 10.1278769,37.4183077 10.2301846,37.4183077 C10.2301846,37.4183077 10.2301846,37.4183077 10.2307692,37.4183077 C10.2307692,37.4183077 10.2307692,37.4183077 10.2313538,37.4183077 C10.3336615,37.4183077 10.4348,37.3972615 10.5318462,37.3616 C10.5400308,37.3586769 10.5482154,37.3569231 10.5564,37.354 C10.6487692,37.3171692 10.7347077,37.2610462 10.8124615,37.1914769 C10.8188923,37.1856308 10.8276615,37.1838769 10.8340923,37.1780308 C10.8381846,37.1745231 10.8387692,37.1692615 10.8428615,37.1657538 C10.8510462,37.1575692 10.8598154,37.1528923 10.8674154,37.1447077 C15.9407077,31.7948923 22.8251385,15.6209231 19.2835385,6.65701538 Z M10.2307692,17.0327692 C6.70846154,17.0327692 3.84326154,14.1675692 3.84326154,10.6452615 C3.84326154,7.12353846 6.70846154,4.25775385 10.2307692,4.25775385 C13.7530769,4.25775385 16.6188615,7.12295385 16.6188615,10.6452615 C16.6188615,14.1669846 13.7530769,17.0327692 10.2307692,17.0327692 Z" id="Shape"></path>
            <path d="M10.2307692,6.0116 C7.67541538,6.0116 5.59710769,8.09049231 5.59710769,10.6452615 C5.59710769,13.2006154 7.676,15.2789231 10.2307692,15.2789231 C12.7861231,15.2789231 14.8650154,13.2000308 14.8650154,10.6452615 C14.8650154,8.08990769 12.7861231,6.0116 10.2307692,6.0116 Z" id="Shape"></path>
        </g>
    </g>
</svg>


